Coordinates
version=1
nRows=43
nColumns=12
inDegrees=yes

Units are S.I. units (second, meters, Newtons, ...)
Angles are in degrees

endheader
time	SC_y	SC_z	SC_x	AC_y	AC_z	AC_x	GH_y	GH_z	GH_yy	EL_x	PS_y
       0.0              -50.33          28.67          22.88          37.67         -6.503         -9.688          80.84          46.63          -57.9          18.65          137.2
  0.009749              -50.33          28.67          22.89          37.67         -6.501         -9.686          80.82          46.64         -57.87          18.65          137.2
    0.0195              -50.33          28.66           22.9          37.67         -6.499         -9.683           80.8          46.64         -57.84          18.65          137.2
   0.02925              -50.33          28.66          22.91          37.67         -6.496         -9.681          80.78          46.65          -57.8          18.65          137.1
     0.039              -50.33          28.65          22.92          37.67         -6.494         -9.678          80.76          46.65         -57.77          18.66          137.1
   0.04875              -50.34          28.65          22.93          37.67         -6.491         -9.675          80.73          46.66         -57.73          18.66          137.1
    0.0585              -50.34          28.64          22.94          37.67         -6.488         -9.672           80.7          46.66         -57.69          18.66          137.1
   0.06825              -50.34          28.63          22.95          37.67         -6.485         -9.668          80.68          46.67         -57.65          18.67          137.0
     0.078              -50.34          28.63          22.96          37.67         -6.482         -9.665          80.64          46.68         -57.61          18.67          137.0
   0.08774              -50.34          28.62          22.98          37.67         -6.478         -9.661          80.61          46.69         -57.56          18.67          137.0
   0.09749              -50.34          28.61          22.99          37.67         -6.474         -9.656          80.58           46.7          -57.5          18.68          137.0
    0.1072              -50.35           28.6          23.01          37.67          -6.47         -9.652          80.54           46.7         -57.45          18.68          136.9
     0.117              -50.35          28.59          23.02          37.68         -6.466         -9.647           80.5          46.71         -57.39          18.68          136.9
    0.1267              -50.35          28.58          23.04          37.68         -6.461         -9.642          80.45          46.72         -57.32          18.69          136.8
    0.1365              -50.36          28.57          23.06          37.68         -6.456         -9.636           80.4          46.74         -57.25          18.69          136.8
    0.1462              -50.36          28.56          23.08          37.68          -6.45          -9.63          80.35          46.75         -57.17           18.7          136.8
     0.156              -50.36          28.54          23.11          37.68         -6.444         -9.623          80.29          46.76         -57.09          18.71          136.7
    0.1657              -50.37          28.53          23.13          37.68         -6.438         -9.616          80.23          46.78          -57.0          18.71          136.6
    0.1755              -50.37          28.51          23.16          37.68         -6.431         -9.608          80.16          46.79          -56.9          18.72          136.6
    0.1852              -50.38           28.5          23.19          37.68         -6.423         -9.599          80.09          46.81         -56.79          18.73          136.5
     0.195              -50.38          28.48          23.23          37.68         -6.414         -9.589          80.01          46.83         -56.67          18.74          136.4
    0.2047              -50.39          28.46          23.26          37.68         -6.404         -9.578          79.92          46.85         -56.54          18.75          136.4
    0.2145              -50.39          28.43           23.3          37.68         -6.394         -9.567          79.82          46.88          -56.4          18.76          136.3
    0.2242               -50.4          28.41          23.35          37.68         -6.382         -9.554          79.71           46.9         -56.23          18.77          136.2
     0.234              -50.41          28.38           23.4          37.68         -6.369         -9.539          79.59          46.93         -56.06          18.78          136.1
    0.2437              -50.42          28.35          23.46          37.68         -6.355         -9.523          79.45          46.96         -55.86           18.8          135.9
    0.2535              -50.43          28.31          23.52          37.68         -6.338         -9.505           79.3           47.0         -55.63          18.81          135.8
    0.2632              -50.44          28.27          23.59          37.68          -6.32         -9.484          79.13          47.04         -55.38          18.83          135.6
     0.273              -50.45          28.22          23.67          37.68         -6.299         -9.461          78.94          47.09          -55.1          18.85          135.5
    0.2827              -50.46          28.17          23.76          37.68         -6.276         -9.435          78.72          47.14         -54.77          18.87          135.2
    0.2925              -50.48          28.11          23.87          37.68         -6.249         -9.405          78.47           47.2          -54.4           18.9          135.0
    0.3022               -50.5          28.04          23.99          37.68         -6.218         -9.371          78.18          47.27         -53.98          18.93          134.8
     0.312              -50.52          27.97          24.12          37.68         -6.183         -9.332          77.85          47.35         -53.49          18.97          134.5
    0.3217              -50.54          27.87          24.28          37.68         -6.142         -9.286          77.46          47.44         -52.93          19.01          134.1
    0.3315              -50.57          27.77          24.47          37.68         -6.094         -9.232          77.01          47.55         -52.26          19.06          133.7
    0.3412               -50.6          27.64          24.69          37.68         -6.037         -9.168          76.48          47.67         -51.48          19.11          133.2
     0.351              -50.64          27.49          24.96          37.68         -5.969         -9.093          75.84          47.83         -50.55          19.18          132.6
    0.3607              -50.69          27.31          25.27          37.68         -5.888         -9.003          75.09          48.01         -49.44          19.26          131.9
    0.3705              -50.75          27.09          25.65          37.68          -5.79         -8.894          74.17          48.23         -48.09          19.36          131.1
    0.3802              -50.82          26.83          26.12          37.68          -5.67          -8.76          73.05          48.49         -46.44          19.48          130.0
      0.39              -50.91           26.5          26.69          37.69         -5.523         -8.595          71.66          48.82         -44.41          19.63          128.8
    0.3997              -51.01          26.09          27.41          37.69         -5.338          -8.39          69.94          49.24         -41.87          19.81          127.2
    0.4095              -51.15          25.58          28.31          37.69         -5.106         -8.131          67.77          49.76         -38.68          20.05          125.2
